<?xml version="1.0" encoding="utf-8"?>
<!-- generated at drububu.com  -->
<!DOCTYPE svg PUBLIC "-//W3C//DTD SVG 1.1//EN" "http://www.w3.org/Graphics/SVG/1.1/DTD/svg11.dtd">
<svg version="1.1" preserveAspectRatio="xMinYMin meet" xmlns="http://www.w3.org/2000/svg" xmlns:xlink="http://www.w3.org/1999/xlink" x="0px" y="0px" width="20px" height="5px" viewBox="0 0 20 5">
<path d="M0 0h2v1h1v1h1v1h-1v1h-1v1h-2v-1h1v-1h1v-1h-1v-1h-1v-1z" fill="rgb(1,2,2)"/>
<path d="M2 0h2v1h1v1h1v1h-1v1h-1v1h-2v-1h1v-1h1v-1h-1v-1h-1v-1z" fill="rgb(255,255,255)"/>
<path d="M4 0h2v1h1v1h1v1h-1v1h-1v1h-2v-1h1v-1h1v-1h-1v-1h-1v-1z" fill="rgb(1,2,2)"/>
<path d="M6 0h3v5h-3v-1h1v-1h1v-1h-1v-1h-1v-1z" fill="rgb(255,255,255)"/>
<path d="M9 0h1v2h3v1h1v1h-1v1h-4v-5z" fill="rgb(1,2,2)"/>
<path d="M10 0h10v2h-5v2h-1v-1h-1v-1h-3v-2z" fill="rgb(255,255,255)"/>
<path d="M0 1h1v1h1v1h-1v1h-1v-3z" fill="rgb(255,255,255)"/>
<path d="M15 2h5v3h-1v-2h-1v2h-1v-2h-1v2h-2v-1h1v-2z" fill="rgb(1,2,2)"/>
<path d="M10 3h2v1h-2v-1z" fill="rgb(255,255,255)"/>
<path d="M16 3h1v2h-1v-2z" fill="rgb(255,255,255)"/>
<path d="M18 3h1v2h-1v-2z" fill="rgb(255,255,255)"/>
<path d="M13 4h1v1h-1v-1z" fill="rgb(255,255,255)"/>
</svg>